<?xml version="1.0" encoding="utf-8"?>
<!-- Generator: Adobe Illustrator 19.0.0, SVG Export Plug-In . SVG Version: 6.00 Build 0)  -->
<svg version="1.1" id="Capa_1" xmlns="http://www.w3.org/2000/svg" xmlns:xlink="http://www.w3.org/1999/xlink" x="0px" y="0px"
	 viewBox="0 0 841.9 216.2" style="enable-background:new 0 0 841.9 216.2;" xml:space="preserve">
<style type="text/css">
	.st0{fill:#FF0666;}
	.st1{fill:none;}
	.st2{fill:#1D1D1B;}
	.st3{fill:#FFFFFF;}
</style>
<g id="XMLID_25_">
	<g id="XMLID_123_">
		<rect id="XMLID_243_" x="661.6" y="16.4" class="st0" width="30.5" height="23.1"/>
		<g id="XMLID_144_">
			<g id="XMLID_458_">
				<path id="XMLID_495_" d="M247,124H268c4.9,0,9.4,0.8,13.5,2.3c4.1,1.5,7.6,3.7,10.6,6.4c3,2.7,5.3,6,6.9,9.7
					c1.6,3.7,2.4,7.7,2.4,12v0.2c0,4.3-0.8,8.4-2.4,12.1c-1.6,3.7-3.9,7-6.9,9.7c-3,2.7-6.5,4.9-10.6,6.5c-4.1,1.6-8.6,2.4-13.5,2.4
					H247V124z M268,181.3c4.4,0,8.3-0.7,11.9-2.1c3.5-1.4,6.5-3.3,9-5.6c2.5-2.4,4.4-5.2,5.7-8.4c1.3-3.2,2-6.6,2-10.3v-0.2
					c0-3.6-0.7-7.1-2-10.3c-1.3-3.2-3.3-6-5.7-8.4c-2.5-2.4-5.5-4.3-9-5.7c-3.5-1.4-7.5-2.1-11.9-2.1h-16.3v53.1H268z"/>
				<path id="XMLID_492_" d="M316.4,123.2h5.5v5.9h-5.5V123.2z M317,140.7h4.4v44.7H317V140.7z"/>
				<path id="XMLID_489_" d="M358.8,199.6c-7.7,0-14.8-2.3-21.1-6.9l2.6-3.5c5.6,4.2,11.8,6.3,18.6,6.3c2.6,0,5.1-0.4,7.3-1.1
					c2.2-0.7,4.1-1.8,5.7-3.3c1.6-1.5,2.8-3.3,3.7-5.4c0.9-2.1,1.4-4.7,1.4-7.5v-6.5c-1,1.4-2.2,2.7-3.4,3.9
					c-1.3,1.2-2.7,2.3-4.2,3.3c-1.6,1-3.3,1.7-5.2,2.3c-1.9,0.6-4,0.8-6.3,0.8c-2.8,0-5.5-0.5-8.1-1.5c-2.6-1-5-2.4-7.1-4.2
					c-2.1-1.8-3.7-4-5-6.6c-1.3-2.6-1.9-5.5-1.9-8.7v-0.2c0-3.2,0.6-6.1,1.9-8.8c1.3-2.6,2.9-4.9,5-6.7c2.1-1.8,4.4-3.3,7.1-4.2
					c2.6-1,5.3-1.5,8.1-1.5c2.3,0,4.4,0.3,6.3,0.8c1.9,0.6,3.7,1.3,5.3,2.2c1.6,0.9,3,2,4.2,3.2c1.3,1.2,2.4,2.5,3.3,3.8v-8.9h4.4
					v37.8c0,3.3-0.5,6.2-1.5,8.7c-1,2.5-2.5,4.7-4.3,6.5c-2,1.9-4.4,3.4-7.3,4.4C365.4,199.1,362.2,199.6,358.8,199.6z M358.2,177.9
					c2.4,0,4.7-0.4,7-1.2c2.3-0.8,4.3-2,6.1-3.5c1.8-1.5,3.2-3.3,4.3-5.3c1.1-2.1,1.6-4.4,1.6-7v-0.2c0-2.6-0.5-4.9-1.6-7
					c-1.1-2.1-2.5-3.9-4.3-5.4c-1.8-1.5-3.8-2.6-6.1-3.4c-2.3-0.8-4.6-1.2-7-1.2c-2.4,0-4.7,0.4-6.8,1.2c-2.2,0.8-4.1,1.9-5.7,3.4
					c-1.6,1.5-2.9,3.2-3.8,5.3c-0.9,2.1-1.4,4.4-1.4,7.1v0.2c0,2.5,0.5,4.8,1.4,6.9c1,2.1,2.3,3.9,3.9,5.4c1.6,1.5,3.5,2.7,5.7,3.5
					C353.6,177.5,355.8,177.9,358.2,177.9z"/>
				<path id="XMLID_486_" d="M398.1,123.2h5.5v5.9h-5.5V123.2z M398.7,140.7h4.4v44.7h-4.4V140.7z"/>
				<path id="XMLID_484_" d="M435.7,186.2c-1.8,0-3.5-0.2-5-0.7c-1.6-0.5-2.9-1.2-4.1-2.2c-1.2-1-2.1-2.3-2.7-3.9
					c-0.7-1.5-1-3.4-1-5.5v-29.3h-6.7v-3.9h6.7v-14.3h4.4v14.3h16.1v3.9h-16.1v28.8c0,3.2,0.9,5.5,2.6,6.7c1.7,1.3,3.9,1.9,6.6,1.9
					c1.1,0,2.2-0.1,3.2-0.3c1-0.2,2.2-0.6,3.5-1.2v4c-1.2,0.5-2.4,0.9-3.6,1.2C438.5,186,437.2,186.2,435.7,186.2z"/>
				<path id="XMLID_481_" d="M470.3,186.4c-2.2,0-4.3-0.3-6.4-0.9c-2.1-0.6-4-1.5-5.7-2.6c-1.7-1.2-3-2.6-4.1-4.4
					c-1-1.8-1.6-3.8-1.6-6.1v-0.2c0-2.3,0.5-4.4,1.5-6.2c1-1.8,2.4-3.3,4.1-4.6c1.7-1.2,3.8-2.2,6.3-2.8c2.5-0.6,5.2-1,8.2-1
					c3.2,0,6,0.2,8.4,0.5c2.3,0.4,4.6,0.8,6.8,1.4v-1.9c0-4.5-1.3-7.9-4-10.2c-2.7-2.3-6.4-3.4-11.1-3.4c-2.8,0-5.4,0.3-7.7,1
					c-2.3,0.7-4.6,1.5-6.7,2.6l-1.6-3.8c2.5-1.2,5.1-2.1,7.6-2.9c2.6-0.7,5.5-1.1,8.6-1.1c6.3,0,11.1,1.6,14.5,4.9
					c3.1,3,4.7,7.2,4.7,12.6v27.9h-4.3v-7.4c-0.8,1.1-1.7,2.1-2.8,3.1c-1.1,1-2.4,1.9-3.8,2.7c-1.4,0.8-3.1,1.4-4.9,1.9
					C474.5,186.2,472.5,186.4,470.3,186.4z M470.6,182.3c2.3,0,4.6-0.3,6.7-1c2.1-0.7,3.9-1.6,5.5-2.8c1.6-1.2,2.8-2.6,3.8-4.3
					c0.9-1.7,1.4-3.5,1.4-5.6v-5.1c-1.9-0.5-4.2-0.9-6.7-1.4c-2.6-0.4-5.5-0.7-8.8-0.7c-4.9,0-8.6,0.9-11.2,2.8
					c-2.6,1.9-3.9,4.4-3.9,7.5v0.2c0,1.6,0.4,3.1,1.1,4.3c0.7,1.3,1.7,2.3,2.9,3.2c1.2,0.9,2.7,1.5,4.3,2
					C467.2,182.1,468.9,182.3,470.6,182.3z"/>
				<path id="XMLID_479_" d="M508.6,121.4h4.4v64h-4.4V121.4z"/>
				<path id="XMLID_475_" d="M558.4,124h25.9c3.6,0,6.8,0.5,9.6,1.4c2.8,1,5,2.3,6.8,4c2.7,2.6,4,5.9,4,9.7v0.2c0,2.1-0.3,4-0.9,5.5
					c-0.6,1.6-1.4,3-2.5,4.1c-1,1.2-2.2,2.2-3.5,2.9c-1.3,0.8-2.6,1.4-3.8,2c1.9,0.5,3.6,1.1,5.4,1.9c1.7,0.8,3.2,1.8,4.5,3
					c1.3,1.2,2.3,2.6,3.1,4.2c0.8,1.6,1.2,3.5,1.2,5.6v0.2c0,2.6-0.5,4.9-1.6,7c-1.1,2.1-2.6,3.8-4.6,5.2c-2,1.4-4.3,2.5-7.1,3.3
					c-2.8,0.8-5.8,1.2-9.2,1.2h-27.3V124z M583.8,152.4c2.3,0,4.5-0.3,6.5-0.8c2-0.6,3.7-1.4,5.1-2.4c1.4-1.1,2.6-2.4,3.4-4
					c0.8-1.6,1.2-3.4,1.2-5.5v-0.2c0-3.4-1.3-6.2-4-8.3c-2.7-2.1-6.6-3.1-11.7-3.1H563v24.3H583.8z M585.9,181.3
					c5.4,0,9.7-1.1,12.9-3.4c3.2-2.3,4.8-5.3,4.8-9.2v-0.2c0-3.8-1.6-6.8-4.9-8.8c-3.3-2.1-8-3.1-14.3-3.1H563v24.7H585.9z"/>
				<path id="XMLID_472_" d="M642.6,186.4c-3.4,0-6.5-0.6-9.4-1.9c-2.8-1.3-5.3-2.9-7.4-5c-2.1-2.1-3.7-4.6-4.9-7.4
					c-1.2-2.8-1.8-5.8-1.8-8.9V163c0-3.2,0.6-6.1,1.8-8.9c1.2-2.8,2.8-5.3,4.9-7.4c2.1-2.2,4.6-3.9,7.5-5.1c2.9-1.3,6-1.9,9.4-1.9
					c3.4,0,6.5,0.6,9.4,1.9c2.8,1.3,5.3,2.9,7.4,5c2.1,2.1,3.7,4.6,4.9,7.4c1.2,2.8,1.8,5.8,1.8,8.9v0.2c0,3.2-0.6,6.1-1.8,8.9
					c-1.2,2.8-2.8,5.3-4.9,7.4c-2.1,2.2-4.6,3.9-7.5,5.1C649.2,185.8,646,186.4,642.6,186.4z M642.8,182.3c2.7,0,5.2-0.5,7.5-1.5
					c2.3-1,4.3-2.4,6-4.1c1.7-1.7,3-3.7,3.9-6.1c0.9-2.3,1.4-4.8,1.4-7.4V163c0-2.7-0.5-5.2-1.4-7.5c-1-2.4-2.3-4.4-4-6.1
					c-1.7-1.7-3.7-3.1-6.1-4.1c-2.3-1-4.8-1.5-7.5-1.5c-2.7,0-5.2,0.5-7.5,1.5c-2.3,1-4.3,2.4-6,4.1c-1.7,1.7-3,3.7-3.9,6.1
					c-0.9,2.3-1.4,4.8-1.4,7.4v0.2c0,2.7,0.5,5.2,1.4,7.5c1,2.4,2.3,4.4,4,6.2c1.7,1.7,3.7,3.1,6.1,4.1
					C637.6,181.8,640.1,182.3,642.8,182.3z"/>
				<path id="XMLID_470_" d="M680.4,121.4h4.4v64h-4.4V121.4z"/>
				<path id="XMLID_467_" d="M702.3,123.2h5.5v5.9h-5.5V123.2z M702.8,140.7h4.4v44.7h-4.4V140.7z"/>
				<path id="XMLID_465_" d="M719.9,140.7h5.1l17.4,39.9l17.5-39.9h4.9l-20.6,45h-3.8L719.9,140.7z"/>
				<path id="XMLID_462_" d="M777,123.2h5.5v5.9H777V123.2z M777.5,140.7h4.4v44.7h-4.4V140.7z"/>
				<path id="XMLID_459_" d="M813.2,186.4c-2.2,0-4.3-0.3-6.4-0.9c-2.1-0.6-4-1.5-5.7-2.6c-1.7-1.2-3-2.6-4.1-4.4
					c-1-1.8-1.6-3.8-1.6-6.1v-0.2c0-2.3,0.5-4.4,1.5-6.2c1-1.8,2.4-3.3,4.1-4.6c1.7-1.2,3.8-2.2,6.3-2.8c2.5-0.6,5.2-1,8.2-1
					c3.2,0,6,0.2,8.4,0.5c2.3,0.4,4.6,0.8,6.8,1.4v-1.9c0-4.5-1.3-7.9-4-10.2c-2.7-2.3-6.4-3.4-11.1-3.4c-2.8,0-5.4,0.3-7.7,1
					c-2.3,0.7-4.6,1.5-6.7,2.6l-1.6-3.8c2.5-1.2,5.1-2.1,7.6-2.9c2.6-0.7,5.5-1.1,8.6-1.1c6.3,0,11.1,1.6,14.5,4.9
					c3.1,3,4.7,7.2,4.7,12.6v27.9h-4.3v-7.4c-0.8,1.1-1.7,2.1-2.8,3.1c-1.1,1-2.4,1.9-3.8,2.7c-1.4,0.8-3.1,1.4-4.9,1.9
					C817.4,186.2,815.4,186.4,813.2,186.4z M813.5,182.3c2.3,0,4.6-0.3,6.7-1c2.1-0.7,3.9-1.6,5.5-2.8c1.6-1.2,2.8-2.6,3.8-4.3
					c0.9-1.7,1.4-3.5,1.4-5.6v-5.1c-1.9-0.5-4.2-0.9-6.7-1.4c-2.6-0.4-5.5-0.7-8.8-0.7c-4.9,0-8.6,0.9-11.2,2.8
					c-2.6,1.9-3.9,4.4-3.9,7.5v0.2c0,1.6,0.4,3.1,1.1,4.3c0.7,1.3,1.7,2.3,2.9,3.2c1.2,0.9,2.7,1.5,4.3,2
					C810.1,182.1,811.8,182.3,813.5,182.3z"/>
			</g>
		</g>
		<path id="XMLID_142_" d="M247,42.4h19.4L282.2,68L298,42.4h19.4v66.3h-18.3V70.6l-16.9,25.9h-0.4l-16.8-25.8v37.9H247V42.4z"/>
		<path id="XMLID_139_" d="M352.1,41.9h17.7l28.2,66.7h-19.7l-4.8-11.8h-25.6l-4.7,11.8h-19.3L352.1,41.9z M368.2,82.6l-7.4-18.8
			l-7.5,18.8H368.2z"/>
		<path id="XMLID_136_" d="M404.4,42.4h31.3c5.1,0,9.4,0.6,13,1.9c3.5,1.3,6.4,3,8.6,5.3c3.9,3.8,5.9,8.9,5.9,15.4v0.2
			c0,5.1-1.2,9.3-3.7,12.7c-2.5,3.3-5.8,5.9-9.9,7.7l15.8,23.1h-21.2l-13.3-20.1h-0.2h-7.9v20.1h-18.4V42.4z M434.9,74.2
			c3.2,0,5.6-0.7,7.3-2.1c1.7-1.4,2.6-3.3,2.6-5.7v-0.2c0-2.7-0.9-4.6-2.7-5.9c-1.8-1.3-4.2-1.9-7.3-1.9h-12v15.9H434.9z"/>
		<path id="XMLID_134_" d="M472.5,42.4h18.4v26.9l22.8-26.9h21.8l-25.1,28.5l25.9,37.8h-22.1L497.6,84l-6.7,7.5v17.1h-18.4V42.4z"/>
		<path id="XMLID_132_" d="M541.6,42.4h53.2V58h-35.1v10h31.8v14.5h-31.8V93h35.6v15.6h-53.7V42.4z"/>
		<path id="XMLID_130_" d="M620.9,58.5h-19.9V42.4h58.1v16.1h-19.9v50.2h-18.4V58.5z"/>
		<path id="XMLID_128_" d="M667.6,42.4h18.5v66.3h-18.5V42.4z"/>
		<path id="XMLID_126_" d="M698.2,42.4h17.2l27.3,35v-35h18.1v66.3h-16.1l-28.4-36.4v36.4h-18.1V42.4z"/>
		<path id="XMLID_124_" d="M806.3,110c-5.2,0-10-0.8-14.3-2.5c-4.4-1.7-8.2-4-11.4-7.1c-3.2-3-5.7-6.6-7.6-10.8
			c-1.8-4.2-2.7-8.8-2.7-13.9v-0.2c0-4.8,0.9-9.3,2.7-13.5c1.8-4.2,4.3-7.9,7.4-11c3.1-3.1,6.9-5.6,11.3-7.3
			c4.4-1.8,9.1-2.7,14.2-2.7c5.9,0,10.9,0.9,15.2,2.6c4.3,1.7,8.2,4.1,11.7,7.1l-10.8,13c-2.4-2-4.8-3.6-7.3-4.6
			c-2.5-1.1-5.4-1.6-8.7-1.6c-2.4,0-4.6,0.5-6.7,1.4c-2.1,0.9-3.8,2.2-5.3,3.9c-1.5,1.6-2.7,3.6-3.6,5.8c-0.9,2.2-1.3,4.6-1.3,7.1
			v0.2c0,2.7,0.4,5.1,1.3,7.4c0.9,2.3,2.1,4.2,3.8,5.8c1.6,1.6,3.5,2.9,5.7,3.8c2.2,0.9,4.6,1.4,7.3,1.4c4.3,0,7.9-0.9,10.6-2.7v-8
			h-13.1V69.9h30.5v29.8c-3.5,2.9-7.7,5.3-12.5,7.3C817.8,109,812.4,110,806.3,110z"/>
	</g>
	<rect id="XMLID_122_" x="105.9" y="16.4" class="st1" width="87.7" height="87.7"/>
	<g id="XMLID_106_">
		<path id="XMLID_119_" class="st2" d="M156.5,92.1c0.4,0.8,1.4,1,2.2,0.6l20.4-11.5c0.8-0.4,1-1.4,0.6-2.2l-1.8-3.2L154.7,89
			L156.5,92.1z M156.5,92.1"/>
		<g id="XMLID_112_">
			<path id="XMLID_116_" class="st2" d="M134.5,54.2l-5.7-10.1c-0.7-1.2-0.8-2.5-0.5-3.8c0.4-1.4,1.4-2.6,2.7-3.4
				c1.1-0.6,2.3-0.8,3.4-0.7c1.4,0.2,2.5,0.9,3.4,2c0,0,3.5,5,6.7,9.4c2.3-4,2.5-9,0.1-13.3c-3.6-6.4-11.7-8.7-18.1-5.1
				c-6.4,3.6-8.7,11.7-5.1,18.1C124.1,52.3,129.4,54.8,134.5,54.2L134.5,54.2z M134.5,54.2"/>
			<path id="XMLID_113_" class="st2" d="M169.3,52c-0.8-1.3-2.3-2.1-3.8-1.7c-4.5,0.9-13.7,2.8-15,3.2c-0.4,0.1-0.8,0.3-1.1,0.5
				c-0.9,0.5-1.6,1.2-1.9,2l0,0l0,0c0-0.1-11.5-16.3-11.5-16.3c-0.9-1.3-2.4-1.3-3.6-0.6c-1.3,0.8-2.2,2.4-1.4,3.9l15.7,28
				c0.2,0.3,0.1,0.7-0.2,1l0,0c0,0-0.1,0-0.1,0.1l0,0c-1,0.5-3.1,1.7-6.8-0.2c-0.5-0.2-0.9-0.5-1.4-0.7c-1.3-0.6-2.5-0.5-3.4,0
				c-1.6,0.9-2.2,3.1-0.7,4.9c2.2,2.7,9.4,7.8,19.5,10.7l23.2-13.1l0.1-5.3c0-1.9-0.4-3.7-1.3-5.4L169.3,52z M169.3,52"/>
		</g>
	</g>
	<g id="XMLID_53_">
		<rect id="XMLID_105_" x="105.9" y="112.3" width="87.7" height="87.7"/>
		<g id="XMLID_19_">
			<g id="XMLID_149_">
				<path id="XMLID_150_" class="st3" d="M126.2,127.2h28.6c3.5,0,6.5,0.4,9,1.3c2.5,0.9,4.6,2.1,6.2,3.8c1.1,1.1,2,2.4,2.6,3.9
					c0.6,1.5,1,3.2,1,5.1v0.2c0,3.2-0.8,5.9-2.4,7.9c-1.6,2-3.7,3.5-6.2,4.6c3.4,1.1,6.1,2.7,8.1,4.8c2,2.1,3,5,3,8.8v0.2
					c0,4.8-1.9,8.6-5.6,11.3c-3.7,2.7-8.9,4.1-15.6,4.1h-28.8V127.2z M151,149.5c2.4,0,4.2-0.4,5.5-1.2s1.9-2,1.9-3.7v-0.2
					c0-1.5-0.6-2.7-1.8-3.6c-1.2-0.8-2.9-1.2-5.3-1.2h-10.1v9.8H151z M153.3,170.6c2.4,0,4.2-0.4,5.5-1.3c1.3-0.9,1.9-2.1,1.9-3.8
					v-0.2c0-1.5-0.6-2.8-1.8-3.7c-1.2-0.9-3.1-1.4-5.8-1.4h-11.8v10.3H153.3z"/>
			</g>
		</g>
	</g>
	<g id="XMLID_38_">
		<rect id="XMLID_49_" x="6.8" y="112.3" width="87.7" height="87.7"/>
		<g id="XMLID_5_">
			<g id="XMLID_102_">
				<path id="XMLID_103_" class="st3" d="M25.1,127.2h21.6c5,0,9.5,0.7,13.4,2c3.9,1.4,7.2,3.3,9.9,5.7c2.7,2.4,4.7,5.4,6.2,8.7
					c1.4,3.4,2.1,7.1,2.1,11.1v0.2c0,4-0.7,7.8-2.2,11.2c-1.4,3.4-3.5,6.4-6.2,8.9c-2.7,2.5-6.1,4.5-10,5.9c-4,1.4-8.5,2.1-13.5,2.1
					H25.1V127.2z M46.9,169.4c4.6,0,8.4-1.2,11.2-3.7c2.8-2.4,4.2-5.9,4.2-10.5v-0.2c0-4.5-1.4-7.9-4.2-10.4
					c-2.8-2.5-6.6-3.7-11.2-3.7h-6.3v28.4H46.9z"/>
			</g>
		</g>
	</g>
	<g id="XMLID_27_">
		<rect id="XMLID_37_" x="6.8" y="16" class="st0" width="87.7" height="87.7"/>
		<g id="XMLID_2_">
			<g id="XMLID_57_">
				<path id="XMLID_58_" class="st3" d="M20.9,30.9h16.4l13.3,21.6L64,30.9h16.4v55.9H65V54.7L50.7,76.6h-0.3L36.2,54.9v31.9H20.9
					V30.9z"/>
			</g>
		</g>
	</g>
	<rect id="XMLID_26_" x="207.1" y="16.4" class="st0" width="31" height="183.7"/>
</g>
</svg>
